<svg class="border shadow-md dark:border-slate-700" viewBox="0 0 702.24 395.01" style="width: 702.24px; height: 395.01px;" xmlns="http://www.w3.org/2000/svg" preserveAspectRatio="none"><rect class="bg" id="bg" x="0" y="0" width="702.24" height="395.01" fill="#ffffff"></rect><g transform="rotate(51 351.12 197.505)"><path d="M -175.56 315.01 S -144.00 312.01
            0.00 315.01 77.78 257.01
            175.56 315.01 236.12 266.01
            351.12 315.01 425.68 286.01
            526.68 315.01 604.46 298.01
            702.24 315.01 780.02 294.01
            877.80 315.01 h 110 V 995.01 H -175.56 Z" fill="#000000"></path><path d="M -175.56 105.00 S -100.00 62.50
            0.00 105.00 77.78 62.50
            175.56 105.00 252.12 62.00
            351.12 105.00 428.90 40.00
            526.68 105.00 604.46 62.50
            702.24 105.00 780.02 62.50
            877.80 105.00 h 110 V -600 H -175.56 Z" fill="#FFCE00"></path></g></svg>