<svg width="4297" height="699" viewBox="0 0 4297 699" fill="none" xmlns="http://www.w3.org/2000/svg">
<path d="M159 330L115.2 250.5H102.9V330H51.6V119.4H137.7C154.3 119.4 168.4 122.3 180 128.1C191.8 133.9 200.6 141.9 206.4 152.1C212.2 162.1 215.1 173.3 215.1 185.7C215.1 199.7 211.1 212.2 203.1 223.2C195.3 234.2 183.7 242 168.3 246.6L216.9 330H159ZM102.9 214.2H134.7C144.1 214.2 151.1 211.9 155.7 207.3C160.5 202.7 162.9 196.2 162.9 187.8C162.9 179.8 160.5 173.5 155.7 168.9C151.1 164.3 144.1 162 134.7 162H102.9V214.2ZM323.503 332.4C307.103 332.4 292.303 328.9 279.103 321.9C266.103 314.9 255.803 304.9 248.203 291.9C240.803 278.9 237.103 263.7 237.103 246.3C237.103 229.1 240.903 214 248.503 201C256.103 187.8 266.503 177.7 279.703 170.7C292.903 163.7 307.703 160.2 324.103 160.2C340.503 160.2 355.303 163.7 368.503 170.7C381.703 177.7 392.103 187.8 399.703 201C407.303 214 411.103 229.1 411.103 246.3C411.103 263.5 407.203 278.7 399.403 291.9C391.803 304.9 381.303 314.9 367.903 321.9C354.703 328.9 339.903 332.4 323.503 332.4ZM323.503 288C333.303 288 341.603 284.4 348.403 277.2C355.403 270 358.903 259.7 358.903 246.3C358.903 232.9 355.503 222.6 348.703 215.4C342.103 208.2 333.903 204.6 324.103 204.6C314.103 204.6 305.803 208.2 299.203 215.4C292.603 222.4 289.303 232.7 289.303 246.3C289.303 259.7 292.503 270 298.903 277.2C305.503 284.4 313.703 288 323.503 288ZM489.619 186.3C494.619 178.5 501.519 172.2 510.319 167.4C519.119 162.6 529.419 160.2 541.219 160.2C555.019 160.2 567.519 163.7 578.719 170.7C589.919 177.7 598.719 187.7 605.119 200.7C611.719 213.7 615.019 228.8 615.019 246C615.019 263.2 611.719 278.4 605.119 291.6C598.719 304.6 589.919 314.7 578.719 321.9C567.519 328.9 555.019 332.4 541.219 332.4C529.619 332.4 519.319 330 510.319 325.2C501.519 320.4 494.619 314.2 489.619 306.6V409.8H438.319V162.6H489.619V186.3ZM562.819 246C562.819 233.2 559.219 223.2 552.019 216C545.019 208.6 536.319 204.9 525.919 204.9C515.719 204.9 507.019 208.6 499.819 216C492.819 223.4 489.319 233.5 489.319 246.3C489.319 259.1 492.819 269.2 499.819 276.6C507.019 284 515.719 287.7 525.919 287.7C536.119 287.7 544.819 284 552.019 276.6C559.219 269 562.819 258.8 562.819 246ZM631.732 246C631.732 228.8 634.932 213.7 641.332 200.7C647.932 187.7 656.832 177.7 668.032 170.7C679.232 163.7 691.732 160.2 705.532 160.2C717.332 160.2 727.632 162.6 736.432 167.4C745.432 172.2 752.332 178.5 757.132 186.3V162.6H808.432V330H757.132V306.3C752.132 314.1 745.132 320.4 736.132 325.2C727.332 330 717.032 332.4 705.232 332.4C691.632 332.4 679.232 328.9 668.032 321.9C656.832 314.7 647.932 304.6 641.332 291.6C634.932 278.4 631.732 263.2 631.732 246ZM757.132 246.3C757.132 233.5 753.532 223.4 746.332 216C739.332 208.6 730.732 204.9 720.532 204.9C710.332 204.9 701.632 208.6 694.432 216C687.432 223.2 683.932 233.2 683.932 246C683.932 258.8 687.432 269 694.432 276.6C701.632 284 710.332 287.7 720.532 287.7C730.732 287.7 739.332 284 746.332 276.6C753.532 269.2 757.132 259.1 757.132 246.3ZM977.22 332.4C962.62 332.4 949.62 329.9 938.22 324.9C926.82 319.9 917.82 313.1 911.22 304.5C904.62 295.7 900.92 285.9 900.12 275.1H950.82C951.42 280.9 954.12 285.6 958.92 289.2C963.72 292.8 969.62 294.6 976.62 294.6C983.02 294.6 987.92 293.4 991.32 291C994.92 288.4 996.72 285.1 996.72 281.1C996.72 276.3 994.22 272.8 989.22 270.6C984.22 268.2 976.12 265.6 964.92 262.8C952.92 260 942.92 257.1 934.92 254.1C926.92 250.9 920.02 246 914.22 239.4C908.42 232.6 905.52 223.5 905.52 212.1C905.52 202.5 908.12 193.8 913.32 186C918.72 178 926.52 171.7 936.72 167.1C947.12 162.5 959.42 160.2 973.62 160.2C994.62 160.2 1011.12 165.4 1023.12 175.8C1035.32 186.2 1042.32 200 1044.12 217.2H996.72C995.92 211.4 993.32 206.8 988.92 203.4C984.72 200 979.12 198.3 972.12 198.3C966.12 198.3 961.52 199.5 958.32 201.9C955.12 204.1 953.52 207.2 953.52 211.2C953.52 216 956.02 219.6 961.02 222C966.22 224.4 974.22 226.8 985.02 229.2C997.42 232.4 1007.52 235.6 1015.32 238.8C1023.12 241.8 1029.92 246.8 1035.72 253.8C1041.72 260.6 1044.82 269.8 1045.02 281.4C1045.02 291.2 1042.22 300 1036.62 307.8C1031.22 315.4 1023.32 321.4 1012.92 325.8C1002.72 330.2 990.82 332.4 977.22 332.4ZM1102.2 145.2C1093.2 145.2 1085.8 142.6 1080 137.4C1074.4 132 1071.6 125.4 1071.6 117.6C1071.6 109.6 1074.4 103 1080 97.8C1085.8 92.4 1093.2 89.7 1102.2 89.7C1111 89.7 1118.2 92.4 1123.8 97.8C1129.6 103 1132.5 109.6 1132.5 117.6C1132.5 125.4 1129.6 132 1123.8 137.4C1118.2 142.6 1111 145.2 1102.2 145.2ZM1127.7 162.6V330H1076.4V162.6H1127.7ZM1378.48 160.8C1399.28 160.8 1415.78 167.1 1427.98 179.7C1440.38 192.3 1446.58 209.8 1446.58 232.2V330H1395.58V239.1C1395.58 228.3 1392.68 220 1386.88 214.2C1381.28 208.2 1373.48 205.2 1363.48 205.2C1353.48 205.2 1345.58 208.2 1339.78 214.2C1334.18 220 1331.38 228.3 1331.38 239.1V330H1280.38V239.1C1280.38 228.3 1277.48 220 1271.68 214.2C1266.08 208.2 1258.28 205.2 1248.28 205.2C1238.28 205.2 1230.38 208.2 1224.58 214.2C1218.98 220 1216.18 228.3 1216.18 239.1V330H1164.88V162.6H1216.18V183.6C1221.38 176.6 1228.18 171.1 1236.58 167.1C1244.98 162.9 1254.48 160.8 1265.08 160.8C1277.68 160.8 1288.88 163.5 1298.68 168.9C1308.68 174.3 1316.48 182 1322.08 192C1327.88 182.8 1335.78 175.3 1345.78 169.5C1355.78 163.7 1366.68 160.8 1378.48 160.8ZM1533.76 186.3C1538.76 178.5 1545.66 172.2 1554.46 167.4C1563.26 162.6 1573.56 160.2 1585.36 160.2C1599.16 160.2 1611.66 163.7 1622.86 170.7C1634.06 177.7 1642.86 187.7 1649.26 200.7C1655.86 213.7 1659.16 228.8 1659.16 246C1659.16 263.2 1655.86 278.4 1649.26 291.6C1642.86 304.6 1634.06 314.7 1622.86 321.9C1611.66 328.9 1599.16 332.4 1585.36 332.4C1573.76 332.4 1563.46 330 1554.46 325.2C1545.66 320.4 1538.76 314.2 1533.76 306.6V409.8H1482.46V162.6H1533.76V186.3ZM1606.96 246C1606.96 233.2 1603.36 223.2 1596.16 216C1589.16 208.6 1580.46 204.9 1570.06 204.9C1559.86 204.9 1551.16 208.6 1543.96 216C1536.96 223.4 1533.46 233.5 1533.46 246.3C1533.46 259.1 1536.96 269.2 1543.96 276.6C1551.16 284 1559.86 287.7 1570.06 287.7C1580.26 287.7 1588.96 284 1596.16 276.6C1603.36 269 1606.96 258.8 1606.96 246ZM1737.37 108V330H1686.07V108H1737.37ZM1932.35 243.6C1932.35 248.4 1932.05 253.4 1931.45 258.6H1815.35C1816.15 269 1819.45 277 1825.25 282.6C1831.25 288 1838.55 290.7 1847.15 290.7C1859.95 290.7 1868.85 285.3 1873.85 274.5H1928.45C1925.65 285.5 1920.55 295.4 1913.15 304.2C1905.95 313 1896.85 319.9 1885.85 324.9C1874.85 329.9 1862.55 332.4 1848.95 332.4C1832.55 332.4 1817.95 328.9 1805.15 321.9C1792.35 314.9 1782.35 304.9 1775.15 291.9C1767.95 278.9 1764.35 263.7 1764.35 246.3C1764.35 228.9 1767.85 213.7 1774.85 200.7C1782.05 187.7 1792.05 177.7 1804.85 170.7C1817.65 163.7 1832.35 160.2 1848.95 160.2C1865.15 160.2 1879.55 163.6 1892.15 170.4C1904.75 177.2 1914.55 186.9 1921.55 199.5C1928.75 212.1 1932.35 226.8 1932.35 243.6ZM1879.85 230.1C1879.85 221.3 1876.85 214.3 1870.85 209.1C1864.85 203.9 1857.35 201.3 1848.35 201.3C1839.75 201.3 1832.45 203.8 1826.45 208.8C1820.65 213.8 1817.05 220.9 1815.65 230.1H1879.85ZM2014.61 282.6L1981.31 368.7H1948.61L1966.01 282.6H2014.61ZM2184.42 282L2220.72 162.6H2275.32L2215.92 330H2152.62L2093.22 162.6H2148.12L2184.42 282ZM2322.71 145.2C2313.71 145.2 2306.31 142.6 2300.51 137.4C2294.91 132 2292.11 125.4 2292.11 117.6C2292.11 109.6 2294.91 103 2300.51 97.8C2306.31 92.4 2313.71 89.7 2322.71 89.7C2331.51 89.7 2338.71 92.4 2344.31 97.8C2350.11 103 2353.01 109.6 2353.01 117.6C2353.01 125.4 2350.11 132 2344.31 137.4C2338.71 142.6 2331.51 145.2 2322.71 145.2ZM2348.21 162.6V330H2296.91V162.6H2348.21ZM2375.19 246C2375.19 228.8 2378.39 213.7 2384.79 200.7C2391.39 187.7 2400.29 177.7 2411.49 170.7C2422.69 163.7 2435.19 160.2 2448.99 160.2C2459.99 160.2 2469.99 162.5 2478.99 167.1C2488.19 171.7 2495.39 177.9 2500.59 185.7V108H2551.89V330H2500.59V306C2495.79 314 2488.89 320.4 2479.89 325.2C2471.09 330 2460.79 332.4 2448.99 332.4C2435.19 332.4 2422.69 328.9 2411.49 321.9C2400.29 314.7 2391.39 304.6 2384.79 291.6C2378.39 278.4 2375.19 263.2 2375.19 246ZM2500.59 246.3C2500.59 233.5 2496.99 223.4 2489.79 216C2482.79 208.6 2474.19 204.9 2463.99 204.9C2453.79 204.9 2445.09 208.6 2437.89 216C2430.89 223.2 2427.39 233.2 2427.39 246C2427.39 258.8 2430.89 269 2437.89 276.6C2445.09 284 2453.79 287.7 2463.99 287.7C2474.19 287.7 2482.79 284 2489.79 276.6C2496.99 269.2 2500.59 259.1 2500.59 246.3ZM2578.8 246C2578.8 228.8 2582 213.7 2588.4 200.7C2595 187.7 2603.9 177.7 2615.1 170.7C2626.3 163.7 2638.8 160.2 2652.6 160.2C2664.4 160.2 2674.7 162.6 2683.5 167.4C2692.5 172.2 2699.4 178.5 2704.2 186.3V162.6H2755.5V330H2704.2V306.3C2699.2 314.1 2692.2 320.4 2683.2 325.2C2674.4 330 2664.1 332.4 2652.3 332.4C2638.7 332.4 2626.3 328.9 2615.1 321.9C2603.9 314.7 2595 304.6 2588.4 291.6C2582 278.4 2578.8 263.2 2578.8 246ZM2704.2 246.3C2704.2 233.5 2700.6 223.4 2693.4 216C2686.4 208.6 2677.8 204.9 2667.6 204.9C2657.4 204.9 2648.7 208.6 2641.5 216C2634.5 223.2 2631 233.2 2631 246C2631 258.8 2634.5 269 2641.5 276.6C2648.7 284 2657.4 287.7 2667.6 287.7C2677.8 287.7 2686.4 284 2693.4 276.6C2700.6 269.2 2704.2 259.1 2704.2 246.3ZM2845.99 246.3C2845.99 228.9 2849.49 213.7 2856.49 200.7C2863.69 187.7 2873.59 177.7 2886.19 170.7C2898.99 163.7 2913.59 160.2 2929.99 160.2C2950.99 160.2 2968.49 165.7 2982.49 176.7C2996.69 187.7 3005.99 203.2 3010.39 223.2H2955.79C2951.19 210.4 2942.29 204 2929.09 204C2919.69 204 2912.19 207.7 2906.59 215.1C2900.99 222.3 2898.19 232.7 2898.19 246.3C2898.19 259.9 2900.99 270.4 2906.59 277.8C2912.19 285 2919.69 288.6 2929.09 288.6C2942.29 288.6 2951.19 282.2 2955.79 269.4H3010.39C3005.99 289 2996.69 304.4 2982.49 315.6C2968.29 326.8 2950.79 332.4 2929.99 332.4C2913.59 332.4 2898.99 328.9 2886.19 321.9C2873.59 314.9 2863.69 304.9 2856.49 291.9C2849.49 278.9 2845.99 263.7 2845.99 246.3ZM3114.03 332.4C3097.63 332.4 3082.83 328.9 3069.63 321.9C3056.63 314.9 3046.33 304.9 3038.73 291.9C3031.33 278.9 3027.63 263.7 3027.63 246.3C3027.63 229.1 3031.43 214 3039.03 201C3046.63 187.8 3057.03 177.7 3070.23 170.7C3083.43 163.7 3098.23 160.2 3114.63 160.2C3131.03 160.2 3145.83 163.7 3159.03 170.7C3172.23 177.7 3182.63 187.8 3190.23 201C3197.83 214 3201.63 229.1 3201.63 246.3C3201.63 263.5 3197.73 278.7 3189.93 291.9C3182.33 304.9 3171.83 314.9 3158.43 321.9C3145.23 328.9 3130.43 332.4 3114.03 332.4ZM3114.03 288C3123.83 288 3132.13 284.4 3138.93 277.2C3145.93 270 3149.43 259.7 3149.43 246.3C3149.43 232.9 3146.03 222.6 3139.23 215.4C3132.63 208.2 3124.43 204.6 3114.63 204.6C3104.63 204.6 3096.33 208.2 3089.73 215.4C3083.13 222.4 3079.83 232.7 3079.83 246.3C3079.83 259.7 3083.03 270 3089.43 277.2C3096.03 284.4 3104.23 288 3114.03 288ZM3442.45 160.8C3463.25 160.8 3479.75 167.1 3491.95 179.7C3504.35 192.3 3510.55 209.8 3510.55 232.2V330H3459.55V239.1C3459.55 228.3 3456.65 220 3450.85 214.2C3445.25 208.2 3437.45 205.2 3427.45 205.2C3417.45 205.2 3409.55 208.2 3403.75 214.2C3398.15 220 3395.35 228.3 3395.35 239.1V330H3344.35V239.1C3344.35 228.3 3341.45 220 3335.65 214.2C3330.05 208.2 3322.25 205.2 3312.25 205.2C3302.25 205.2 3294.35 208.2 3288.55 214.2C3282.95 220 3280.15 228.3 3280.15 239.1V330H3228.85V162.6H3280.15V183.6C3285.35 176.6 3292.15 171.1 3300.55 167.1C3308.95 162.9 3318.45 160.8 3329.05 160.8C3341.65 160.8 3352.85 163.5 3362.65 168.9C3372.65 174.3 3380.45 182 3386.05 192C3391.85 182.8 3399.75 175.3 3409.75 169.5C3419.75 163.7 3430.65 160.8 3442.45 160.8ZM3597.72 186.3C3602.72 178.5 3609.62 172.2 3618.42 167.4C3627.22 162.6 3637.52 160.2 3649.32 160.2C3663.12 160.2 3675.62 163.7 3686.82 170.7C3698.02 177.7 3706.82 187.7 3713.22 200.7C3719.82 213.7 3723.12 228.8 3723.12 246C3723.12 263.2 3719.82 278.4 3713.22 291.6C3706.82 304.6 3698.02 314.7 3686.82 321.9C3675.62 328.9 3663.12 332.4 3649.32 332.4C3637.72 332.4 3627.42 330 3618.42 325.2C3609.62 320.4 3602.72 314.2 3597.72 306.6V409.8H3546.42V162.6H3597.72V186.3ZM3670.92 246C3670.92 233.2 3667.32 223.2 3660.12 216C3653.12 208.6 3644.42 204.9 3634.02 204.9C3623.82 204.9 3615.12 208.6 3607.92 216C3600.92 223.4 3597.42 233.5 3597.42 246.3C3597.42 259.1 3600.92 269.2 3607.92 276.6C3615.12 284 3623.82 287.7 3634.02 287.7C3644.22 287.7 3652.92 284 3660.12 276.6C3667.32 269 3670.92 258.8 3670.92 246ZM3801.34 108V330H3750.04V108H3801.34ZM3996.31 243.6C3996.31 248.4 3996.01 253.4 3995.41 258.6H3879.31C3880.11 269 3883.41 277 3889.21 282.6C3895.21 288 3902.51 290.7 3911.11 290.7C3923.91 290.7 3932.81 285.3 3937.81 274.5H3992.41C3989.61 285.5 3984.51 295.4 3977.11 304.2C3969.91 313 3960.81 319.9 3949.81 324.9C3938.81 329.9 3926.51 332.4 3912.91 332.4C3896.51 332.4 3881.91 328.9 3869.11 321.9C3856.31 314.9 3846.31 304.9 3839.11 291.9C3831.91 278.9 3828.31 263.7 3828.31 246.3C3828.31 228.9 3831.81 213.7 3838.81 200.7C3846.01 187.7 3856.01 177.7 3868.81 170.7C3881.61 163.7 3896.31 160.2 3912.91 160.2C3929.11 160.2 3943.51 163.6 3956.11 170.4C3968.71 177.2 3978.51 186.9 3985.51 199.5C3992.71 212.1 3996.31 226.8 3996.31 243.6ZM3943.81 230.1C3943.81 221.3 3940.81 214.3 3934.81 209.1C3928.81 203.9 3921.31 201.3 3912.31 201.3C3903.71 201.3 3896.41 203.8 3890.41 208.8C3884.61 213.8 3881.01 220.9 3879.61 230.1H3943.81ZM4048.88 145.2C4039.88 145.2 4032.48 142.6 4026.68 137.4C4021.08 132 4018.28 125.4 4018.28 117.6C4018.28 109.6 4021.08 103 4026.68 97.8C4032.48 92.4 4039.88 89.7 4048.88 89.7C4057.68 89.7 4064.88 92.4 4070.48 97.8C4076.28 103 4079.18 109.6 4079.18 117.6C4079.18 125.4 4076.28 132 4070.48 137.4C4064.88 142.6 4057.68 145.2 4048.88 145.2ZM4074.68 351.6C4074.68 372.2 4069.48 387 4059.08 396C4048.68 405.2 4034.18 409.8 4015.58 409.8H3995.48V366.3H4007.78C4013.38 366.3 4017.38 365.2 4019.78 363C4022.18 360.8 4023.38 357.2 4023.38 352.2V162.6H4074.68V351.6ZM4101.36 246C4101.36 228.8 4104.56 213.7 4110.96 200.7C4117.56 187.7 4126.46 177.7 4137.66 170.7C4148.86 163.7 4161.36 160.2 4175.16 160.2C4186.96 160.2 4197.26 162.6 4206.06 167.4C4215.06 172.2 4221.96 178.5 4226.76 186.3V162.6H4278.06V330H4226.76V306.3C4221.76 314.1 4214.76 320.4 4205.76 325.2C4196.96 330 4186.66 332.4 4174.86 332.4C4161.26 332.4 4148.86 328.9 4137.66 321.9C4126.46 314.7 4117.56 304.6 4110.96 291.6C4104.56 278.4 4101.36 263.2 4101.36 246ZM4226.76 246.3C4226.76 233.5 4223.16 223.4 4215.96 216C4208.96 208.6 4200.36 204.9 4190.16 204.9C4179.96 204.9 4171.26 208.6 4164.06 216C4157.06 223.2 4153.56 233.2 4153.56 246C4153.56 258.8 4157.06 269 4164.06 276.6C4171.26 284 4179.96 287.7 4190.16 287.7C4200.36 287.7 4208.96 284 4215.96 276.6C4223.16 269.2 4226.76 259.1 4226.76 246.3Z" fill="white"/>
<path d="M38 661C369.5 484 889 484 889 484C889 484 1608.5 484 1956.5 661" stroke="#FFCE00" stroke-width="75" stroke-linecap="round"/>
</svg>
