<svg width="330" height="77" viewBox="0 0 330 77" fill="none" xmlns="http://www.w3.org/2000/svg">
<g clip-path="url(#clip0_33_2467)">
<path d="M0 43.09C4.61 38.48 10.85 35.96 17.39 35.96C21.7 35.96 25.12 36.55 28.84 38.78C23.64 34.32 16.35 33.13 9.67 33.13V19.9C20.67 19.9 29.73 26.59 33.15 36.99C32.85 30.75 27.8 23.91 23.49 19.6L33 10.23C36.87 14.1 39.24 18.7 39.99 23.9C40.74 29.1 39.84 34.16 37.46 38.91C41.62 34 42.96 25.98 42.96 19.74H56.19C56.19 30.74 49.35 39.8 38.95 43.22C45.04 42.92 52.32 37.87 56.48 33.71L65.85 43.08C61.24 47.68 55 50.21 48.46 50.21C45.19 50.21 39.99 49.17 37.16 47.38C42.07 51.54 50.09 53.03 56.18 53.03V66.41C45.33 66.41 36.12 59.43 32.85 49.17C33.15 55.11 38.35 62.69 42.36 66.7L32.99 76.07C29.13 72.05 26.9 67.45 26.16 62.24C25.42 57.04 26.16 51.98 28.53 47.23C24.37 52.14 22.88 60.31 22.88 66.4H9.65C9.65 55.55 16.64 46.19 26.89 42.92C20.5 43.37 13.66 48.12 9.36 52.43L0 43.09Z" fill="black"/>
<path d="M128.74 63.03H117.52L117.68 57.3C116.11 59.82 114.22 61.67 112.01 62.85C109.8 64.03 107.11 64.62 103.94 64.62C98.65 64.62 94.39 62.65 91.15 58.72C87.91 54.79 86.29 49.6 86.29 43.15C86.29 36.7 87.88 31.19 91.07 27.43C94.26 23.68 98.68 21.8 104.35 21.8C107.3 21.8 109.9 22.46 112.14 23.79C114.38 25.12 116.25 27.1 117.77 29.73V23.14H128.75V63.03H128.74ZM118.17 43.02C118.17 39.44 117.27 36.61 115.47 34.52C113.67 32.43 111.23 31.39 108.17 31.39C105.11 31.39 102.55 32.43 100.75 34.5C98.95 36.57 98.05 39.41 98.05 43.02C98.05 46.63 98.94 49.43 100.71 51.44C102.49 53.45 104.95 54.45 108.09 54.45C111.23 54.45 113.77 53.45 115.53 51.44C117.29 49.43 118.17 46.63 118.17 43.02Z" fill="black"/>
<path d="M149.48 63.03L133.25 23.14H146.63L153.38 43.88C153.92 45.56 154.36 47.12 154.68 48.56C155.01 50 155.24 51.41 155.37 52.79C155.7 50.7 156.02 48.93 156.35 47.46C156.68 46 157.05 44.67 157.49 43.47L164.28 23.14H177.46L161.07 63.03H149.48Z" fill="black"/>
<path d="M181.89 6.75C181.89 4.91 182.55 3.32 183.88 1.99C185.21 0.66 186.79 0 188.64 0C190.49 0 192.12 0.66 193.46 1.97C194.8 3.29 195.47 4.88 195.47 6.75C195.47 8.62 194.8 10.22 193.46 11.55C192.12 12.88 190.51 13.54 188.64 13.54C186.77 13.54 185.21 12.86 183.88 11.51C182.55 10.15 181.89 8.57 181.89 6.75ZM182.91 63.03V23.14H194.46V63.03H182.91Z" fill="black"/>
<path d="M216.05 63.03L199.82 23.14H213.2L219.95 43.88C220.49 45.56 220.93 47.12 221.25 48.56C221.58 50 221.81 51.41 221.94 52.79C222.27 50.7 222.59 48.93 222.92 47.46C223.25 46 223.62 44.67 224.06 43.47L230.85 23.14H244.03L227.64 63.03H216.05Z" fill="black"/>
<path d="M289.01 63.03H277.79L277.95 57.3C276.38 59.82 274.49 61.67 272.28 62.85C270.07 64.03 267.38 64.62 264.21 64.62C258.92 64.62 254.66 62.65 251.42 58.72C248.18 54.79 246.56 49.6 246.56 43.15C246.56 36.7 248.15 31.19 251.34 27.43C254.53 23.68 258.95 21.8 264.62 21.8C267.57 21.8 270.17 22.46 272.41 23.79C274.65 25.12 276.52 27.1 278.04 29.73V23.14H289.02V63.03H289.01ZM278.43 43.02C278.43 39.44 277.53 36.61 275.73 34.52C273.93 32.43 271.49 31.39 268.43 31.39C265.37 31.39 262.81 32.43 261.01 34.5C259.21 36.57 258.31 39.41 258.31 43.02C258.31 46.63 259.2 49.43 260.97 51.44C262.75 53.45 265.21 54.45 268.35 54.45C271.49 54.45 274.03 53.45 275.79 51.44C277.55 49.43 278.43 46.63 278.43 43.02Z" fill="black"/>
<path d="M296 56.04L304.91 51.44C305.21 52.99 306.01 54.21 307.31 55.1C308.61 55.99 310.22 56.44 312.15 56.44C314.08 56.44 315.54 56.09 316.62 55.4C317.7 54.71 318.25 53.75 318.25 52.53C318.25 50.61 316.32 48.99 312.48 47.69C311.29 47.28 310.34 46.94 309.63 46.67C304.94 44.91 301.69 43.13 299.89 41.34C298.09 39.55 297.19 37.34 297.19 34.71C297.19 30.81 298.72 27.65 301.79 25.23C304.85 22.82 308.89 21.61 313.91 21.61C317.49 21.61 320.59 22.33 323.2 23.77C325.82 25.21 327.72 27.24 328.91 29.87L320.41 34.1C319.95 32.61 319.15 31.48 318.01 30.7C316.87 29.93 315.45 29.54 313.74 29.54C312.03 29.54 310.65 29.89 309.59 30.6C308.53 31.31 308 32.23 308 33.37C308 35.35 310.63 37.19 315.89 38.9C316.51 39.09 316.99 39.24 317.31 39.35C321.67 40.79 324.78 42.46 326.62 44.37C328.46 46.28 329.39 48.71 329.39 51.67C329.39 55.63 327.86 58.77 324.79 61.1C321.73 63.43 317.59 64.6 312.39 64.6C308.27 64.6 304.75 63.83 301.84 62.3C298.93 60.77 296.98 58.67 296 56.02V56.04Z" fill="black"/>
</g>
<defs>
<clipPath id="clip0_33_2467">
<rect width="329.39" height="76.08" fill="white"/>
</clipPath>
</defs>
</svg>
