<svg width="142" height="141" viewBox="0 0 142 141" fill="none" xmlns="http://www.w3.org/2000/svg">
<g clip-path="url(#clip0_33_2445)">
<path d="M0.709961 70.47C10.54 60.64 23.86 55.26 37.8 55.26C47 55.26 54.29 56.52 62.21 61.27C51.11 51.76 35.58 49.23 21.32 49.23V21.02C44.78 21.02 64.11 35.28 71.4 57.47C70.77 44.15 59.99 29.57 50.79 20.38L71.07 0.419983C79.32 8.66998 84.39 18.49 85.97 29.58C87.56 40.68 85.65 51.45 80.58 61.59C89.46 51.13 92.31 34.01 92.31 20.7H120.52C120.52 44.16 105.94 63.49 83.76 70.78C96.75 70.15 112.28 59.37 121.16 50.5L141.13 70.47C131.3 80.29 117.99 85.68 104.04 85.68C97.07 85.68 85.97 83.46 79.95 79.65C90.41 88.53 107.53 91.69 120.52 91.69V120.22C97.38 120.22 77.73 105.33 70.76 83.46C71.39 96.13 82.49 112.3 91.04 120.86L71.07 140.83C62.84 132.26 58.08 122.44 56.5 111.34C54.91 100.26 56.5 89.47 61.56 79.33C52.7 89.79 49.52 107.23 49.52 120.22H21.31C21.31 97.08 36.21 77.12 58.07 70.14C44.44 71.09 29.86 81.24 20.67 90.42L0.709961 70.47Z" fill="#FAFAFA"/>
</g>
<defs>
<clipPath id="clip0_33_2445">
<rect width="140.42" height="140.42" fill="white" transform="translate(0.709961 0.419983)"/>
</clipPath>
</defs>
</svg>
