<svg width="492" height="130" viewBox="0 0 492 130" fill="none" xmlns="http://www.w3.org/2000/svg">
<g clip-path="url(#clip0_73_2)">
<path d="M188.09 18.98C190.75 16.32 194.36 14.86 198.14 14.86C200.63 14.86 202.61 15.2 204.75 16.49C201.74 13.91 197.53 13.23 193.67 13.23V5.59C200.03 5.59 205.26 9.45 207.24 15.47C207.07 11.86 204.15 7.91 201.66 5.42L207.16 0.0100021C209.39 2.24 210.77 4.9 211.2 7.91C211.63 10.92 211.11 13.84 209.74 16.58C212.15 13.74 212.92 9.11 212.92 5.5H220.56C220.56 11.86 216.61 17.09 210.6 19.07C214.12 18.9 218.33 15.98 220.73 13.57L226.14 18.98C223.48 21.64 219.87 23.1 216.09 23.1C214.2 23.1 211.2 22.5 209.56 21.47C212.4 23.88 217.03 24.73 220.55 24.73V32.46C214.28 32.46 208.96 28.43 207.07 22.5C207.24 25.93 210.25 30.31 212.57 32.63L207.16 38.04C204.93 35.72 203.64 33.06 203.21 30.05C202.78 27.05 203.21 24.12 204.58 21.38C202.18 24.22 201.32 28.94 201.32 32.46H193.68C193.68 26.19 197.72 20.78 203.64 18.89C199.95 19.15 196 21.9 193.51 24.39L188.1 18.98H188.09Z" fill="#161616"/>
<path d="M85.87 125.93H63.17L63.5 114.33C60.32 119.43 56.49 123.17 52.03 125.56C47.56 127.95 42.12 129.14 35.7 129.14C25.01 129.14 16.38 125.17 9.83 117.21C3.28 109.26 0 98.76 0 85.71C0 72.66 3.22 61.52 9.66 53.92C16.1 46.33 25.05 42.53 36.52 42.53C42.5 42.53 47.75 43.87 52.27 46.56C56.79 49.25 60.59 53.25 63.66 58.57V45.25H85.87V125.94V125.93ZM64.49 85.46C64.49 78.22 62.67 72.49 59.02 68.27C55.37 64.05 50.45 61.94 44.26 61.94C38.07 61.94 32.9 64.04 29.25 68.23C25.6 72.42 23.78 78.17 23.78 85.46C23.78 92.75 25.58 98.43 29.17 102.49C32.76 106.55 37.74 108.58 44.1 108.58C50.46 108.58 55.59 106.55 59.15 102.49C62.71 98.43 64.5 92.76 64.5 85.46H64.49Z" fill="#161616"/>
<path d="M127.82 125.93L95 45.24H122.06L135.71 87.19C136.81 90.59 137.68 93.74 138.34 96.65C139 99.56 139.46 102.41 139.74 105.2C140.4 100.98 141.06 97.39 141.71 94.42C142.37 91.46 143.13 88.77 144.01 86.36L157.75 45.23H184.4L151.25 125.92H127.81L127.82 125.93Z" fill="#161616"/>
<path d="M195.43 45.24V125.94H218.78V45.24H195.43Z" fill="#161616"/>
<path d="M262.47 125.93L229.65 45.24H256.71L270.36 87.19C271.46 90.59 272.33 93.74 272.99 96.65C273.65 99.56 274.11 102.41 274.39 105.2C275.05 100.98 275.71 97.39 276.36 94.42C277.02 91.46 277.78 88.77 278.66 86.36L292.4 45.23H319.05L285.9 125.92H262.46L262.47 125.93Z" fill="#161616"/>
<path d="M410.03 125.93H387.33L387.66 114.33C384.48 119.43 380.65 123.17 376.19 125.56C371.72 127.95 366.28 129.14 359.86 129.14C349.17 129.14 340.54 125.17 333.99 117.21C327.44 109.26 324.16 98.76 324.16 85.71C324.16 72.66 327.38 61.52 333.82 53.92C340.26 46.33 349.21 42.53 360.68 42.53C366.66 42.53 371.91 43.87 376.43 46.56C380.95 49.25 384.75 53.25 387.82 58.57V45.25H410.03V125.94V125.93ZM388.64 85.46C388.64 78.22 386.82 72.49 383.17 68.27C379.52 64.05 374.6 61.94 368.41 61.94C362.22 61.94 357.05 64.04 353.4 68.23C349.75 72.42 347.93 78.17 347.93 85.46C347.93 92.75 349.73 98.43 353.32 102.49C356.91 106.55 361.89 108.58 368.25 108.58C374.61 108.58 379.74 106.55 383.3 102.49C386.86 98.43 388.65 92.76 388.65 85.46H388.64Z" fill="#161616"/>
<path d="M424.18 111.78L442.19 102.48C442.79 105.61 444.41 108.07 447.04 109.88C449.67 111.69 452.93 112.59 456.83 112.59C460.73 112.59 463.68 111.89 465.88 110.49C468.07 109.09 469.17 107.16 469.17 104.69C469.17 100.8 465.28 97.53 457.49 94.9C455.08 94.08 453.16 93.39 451.73 92.84C442.24 89.28 435.68 85.68 432.03 82.07C428.38 78.45 426.56 73.98 426.56 68.66C426.56 60.76 429.66 54.38 435.85 49.49C442.05 44.61 450.22 42.17 460.36 42.17C467.6 42.17 473.86 43.62 479.15 46.53C484.44 49.44 488.29 53.55 490.71 58.87L473.52 67.42C472.59 64.41 470.97 62.12 468.67 60.55C466.37 58.98 463.49 58.21 460.03 58.21C456.57 58.21 453.78 58.92 451.64 60.35C449.5 61.78 448.43 63.64 448.43 65.94C448.43 69.94 453.75 73.67 464.39 77.13C465.65 77.51 466.61 77.82 467.27 78.03C476.1 80.94 482.38 84.32 486.11 88.19C489.84 92.06 491.7 96.98 491.7 102.96C491.7 110.97 488.6 117.33 482.4 122.04C476.2 126.76 467.84 129.11 457.31 129.11C448.97 129.11 441.86 127.56 435.97 124.46C430.07 121.36 426.14 117.13 424.17 111.75L424.18 111.78Z" fill="#161616"/>
</g>
<defs>
<clipPath id="clip0_73_2">
<rect width="491.71" height="129.14" fill="white"/>
</clipPath>
</defs>
</svg>
