<svg width="492" height="130" viewBox="0 0 492 130" fill="none" xmlns="http://www.w3.org/2000/svg">
<g clip-path="url(#clip0_33_2435)">
<path d="M188.09 19.04C190.75 16.38 194.36 14.92 198.14 14.92C200.63 14.92 202.61 15.26 204.75 16.55C201.74 13.97 197.53 13.29 193.67 13.29V5.65C200.03 5.65 205.26 9.51 207.24 15.53C207.07 11.92 204.15 7.97 201.66 5.48L207.16 0.0699975C209.39 2.3 210.77 4.96 211.2 7.97C211.63 10.98 211.11 13.9 209.74 16.64C212.15 13.8 212.92 9.17 212.92 5.56H220.56C220.56 11.92 216.61 17.15 210.6 19.13C214.12 18.96 218.33 16.04 220.73 13.63L226.14 19.04C223.48 21.7 219.87 23.16 216.09 23.16C214.2 23.16 211.2 22.56 209.56 21.53C212.4 23.94 217.03 24.79 220.55 24.79V32.52C214.28 32.52 208.96 28.49 207.07 22.56C207.24 25.99 210.25 30.37 212.57 32.69L207.16 38.1C204.93 35.78 203.64 33.12 203.21 30.11C202.78 27.11 203.21 24.18 204.58 21.44C202.18 24.28 201.32 29 201.32 32.52H193.68C193.68 26.25 197.72 20.84 203.64 18.95C199.95 19.21 196 21.96 193.51 24.45L188.1 19.04H188.09Z" fill="#FAFAFA"/>
<path d="M85.87 125.99H63.17L63.5 114.39C60.32 119.49 56.49 123.23 52.03 125.62C47.56 128.01 42.12 129.2 35.7 129.2C25.01 129.2 16.38 125.23 9.83 117.27C3.28 109.32 0 98.82 0 85.77C0 72.72 3.22 61.58 9.66 53.98C16.1 46.39 25.05 42.59 36.52 42.59C42.5 42.59 47.75 43.93 52.27 46.62C56.79 49.31 60.59 53.31 63.66 58.63V45.31H85.87V126V125.99ZM64.49 85.52C64.49 78.28 62.67 72.55 59.02 68.33C55.37 64.11 50.45 62 44.26 62C38.07 62 32.9 64.1 29.25 68.29C25.6 72.48 23.78 78.23 23.78 85.52C23.78 92.81 25.58 98.49 29.17 102.55C32.76 106.61 37.74 108.64 44.1 108.64C50.46 108.64 55.59 106.61 59.15 102.55C62.71 98.49 64.5 92.82 64.5 85.52H64.49Z" fill="#FAFAFA"/>
<path d="M127.82 125.99L95 45.3H122.06L135.71 87.25C136.81 90.65 137.68 93.8 138.34 96.71C139 99.62 139.46 102.47 139.74 105.26C140.4 101.04 141.06 97.45 141.71 94.48C142.37 91.52 143.13 88.83 144.01 86.42L157.75 45.29H184.4L151.25 125.98H127.81L127.82 125.99Z" fill="#FAFAFA"/>
<path d="M195.43 45.3V126H218.78V45.3H195.43Z" fill="#FAFAFA"/>
<path d="M262.47 125.99L229.65 45.3H256.71L270.36 87.25C271.46 90.65 272.33 93.8 272.99 96.71C273.65 99.62 274.11 102.47 274.39 105.26C275.05 101.04 275.71 97.45 276.36 94.48C277.02 91.52 277.78 88.83 278.66 86.42L292.4 45.29H319.05L285.9 125.98H262.46L262.47 125.99Z" fill="#FAFAFA"/>
<path d="M410.03 125.99H387.33L387.66 114.39C384.48 119.49 380.65 123.23 376.19 125.62C371.72 128.01 366.28 129.2 359.86 129.2C349.17 129.2 340.54 125.23 333.99 117.27C327.44 109.32 324.16 98.82 324.16 85.77C324.16 72.72 327.38 61.58 333.82 53.98C340.26 46.39 349.21 42.59 360.68 42.59C366.66 42.59 371.91 43.93 376.43 46.62C380.95 49.31 384.75 53.31 387.82 58.63V45.31H410.03V126V125.99ZM388.64 85.52C388.64 78.28 386.82 72.55 383.17 68.33C379.52 64.11 374.6 62 368.41 62C362.22 62 357.05 64.1 353.4 68.29C349.75 72.48 347.93 78.23 347.93 85.52C347.93 92.81 349.73 98.49 353.32 102.55C356.91 106.61 361.89 108.64 368.25 108.64C374.61 108.64 379.74 106.61 383.3 102.55C386.86 98.49 388.65 92.82 388.65 85.52H388.64Z" fill="#FAFAFA"/>
<path d="M424.18 111.84L442.19 102.54C442.79 105.67 444.41 108.13 447.04 109.94C449.67 111.75 452.93 112.65 456.83 112.65C460.73 112.65 463.68 111.95 465.88 110.55C468.07 109.15 469.17 107.22 469.17 104.75C469.17 100.86 465.28 97.59 457.49 94.96C455.08 94.14 453.16 93.45 451.73 92.9C442.24 89.34 435.68 85.74 432.03 82.13C428.38 78.51 426.56 74.04 426.56 68.72C426.56 60.82 429.66 54.44 435.85 49.55C442.05 44.67 450.22 42.23 460.36 42.23C467.6 42.23 473.86 43.68 479.15 46.59C484.44 49.5 488.29 53.61 490.71 58.93L473.52 67.48C472.59 64.47 470.97 62.18 468.67 60.61C466.37 59.04 463.49 58.27 460.03 58.27C456.57 58.27 453.78 58.98 451.64 60.41C449.5 61.84 448.43 63.7 448.43 66C448.43 70 453.75 73.73 464.39 77.19C465.65 77.57 466.61 77.88 467.27 78.09C476.1 81 482.38 84.38 486.11 88.25C489.84 92.12 491.7 97.04 491.7 103.02C491.7 111.03 488.6 117.39 482.4 122.1C476.2 126.82 467.84 129.17 457.31 129.17C448.97 129.17 441.86 127.62 435.97 124.52C430.07 121.42 426.14 117.19 424.17 111.81L424.18 111.84Z" fill="#FAFAFA"/>
</g>
<defs>
<clipPath id="clip0_33_2435">
<rect width="491.71" height="129.14" fill="white" transform="translate(0 0.0599976)"/>
</clipPath>
</defs>
</svg>
