<svg width="247" height="173" viewBox="0 0 247 173" fill="none" xmlns="http://www.w3.org/2000/svg">
<g clip-path="url(#clip0_33_2457)">
<path d="M135.08 56.32C142.86 48.54 153.39 44.29 164.41 44.29C171.69 44.29 177.45 45.29 183.72 49.05C174.94 41.53 162.66 39.53 151.38 39.53V17.22C169.93 17.22 185.22 28.5 190.98 46.05C190.48 35.52 181.96 23.99 174.68 16.72L190.73 0.919983C197.25 7.43998 201.26 15.21 202.52 23.98C203.78 32.75 202.26 41.28 198.25 49.3C205.27 41.02 207.53 27.49 207.53 16.96H229.84C229.84 35.51 218.31 50.8 200.77 56.56C211.05 56.06 223.32 47.54 230.34 40.52L246.14 56.32C238.36 64.09 227.84 68.35 216.81 68.35C211.3 68.35 202.52 66.59 197.76 63.58C206.04 70.6 219.57 73.1 229.84 73.1V95.66C211.54 95.66 196 83.88 190.49 66.59C190.99 76.61 199.77 89.4 206.53 96.16L190.73 111.96C184.22 105.18 180.45 97.42 179.21 88.64C177.95 79.87 179.21 71.34 183.21 63.32C176.2 71.6 173.69 85.38 173.69 95.66H151.38C151.38 77.36 163.17 61.58 180.45 56.06C169.67 56.82 158.14 64.84 150.88 72.1L135.08 56.31V56.32Z" fill="#FAFAFA"/>
<path d="M42.6399 170.84H31.4199L31.5799 165.11C30.0099 167.63 28.1199 169.48 25.9099 170.66C23.6999 171.84 21.0099 172.43 17.8399 172.43C12.5499 172.43 8.28994 170.46 5.04994 166.53C1.80994 162.6 0.189941 157.41 0.189941 150.96C0.189941 144.51 1.77994 139 4.96994 135.24C8.15994 131.49 12.5799 129.61 18.2499 129.61C21.1999 129.61 23.7999 130.27 26.0399 131.6C28.2799 132.93 30.1499 134.91 31.6699 137.54V130.95H42.6499V170.84H42.6399ZM32.0599 150.83C32.0599 147.25 31.1599 144.42 29.3599 142.33C27.5599 140.24 25.1199 139.2 22.0599 139.2C18.9999 139.2 16.4399 140.24 14.6399 142.31C12.8399 144.38 11.9399 147.22 11.9399 150.83C11.9399 154.44 12.8299 157.24 14.5999 159.25C16.3799 161.26 18.8399 162.26 21.9799 162.26C25.1199 162.26 27.6599 161.26 29.4199 159.25C31.1799 157.24 32.0599 154.44 32.0599 150.83Z" fill="#FAFAFA"/>
<path d="M63.3699 170.84L47.1399 130.95H60.5199L67.2699 151.69C67.8099 153.37 68.2499 154.93 68.5699 156.37C68.8999 157.81 69.1299 159.22 69.2599 160.6C69.5899 158.51 69.9099 156.74 70.2399 155.27C70.5699 153.81 70.9399 152.48 71.3799 151.28L78.1699 130.95H91.3499L74.9599 170.84H63.3699Z" fill="#FAFAFA"/>
<path d="M95.7799 114.55C95.7799 112.71 96.4399 111.12 97.7699 109.79C99.0999 108.46 100.68 107.8 102.53 107.8C104.38 107.8 106.01 108.46 107.35 109.77C108.69 111.09 109.36 112.68 109.36 114.55C109.36 116.42 108.69 118.02 107.35 119.35C106.01 120.68 104.4 121.34 102.53 121.34C100.66 121.34 99.0999 120.66 97.7699 119.31C96.4399 117.95 95.7799 116.37 95.7799 114.55ZM96.7999 170.84V130.95H108.35V170.84H96.7999Z" fill="#FAFAFA"/>
<path d="M129.94 170.84L113.71 130.95H127.09L133.84 151.69C134.38 153.37 134.82 154.93 135.14 156.37C135.47 157.81 135.7 159.22 135.83 160.6C136.16 158.51 136.48 156.74 136.81 155.27C137.14 153.81 137.51 152.48 137.95 151.28L144.74 130.95H157.92L141.53 170.84H129.94Z" fill="#FAFAFA"/>
<path d="M202.9 170.84H191.68L191.84 165.11C190.27 167.63 188.38 169.48 186.17 170.66C183.96 171.84 181.27 172.43 178.1 172.43C172.81 172.43 168.55 170.46 165.31 166.53C162.07 162.6 160.45 157.41 160.45 150.96C160.45 144.51 162.04 139 165.23 135.24C168.42 131.49 172.84 129.61 178.51 129.61C181.46 129.61 184.06 130.27 186.3 131.6C188.54 132.93 190.41 134.91 191.93 137.54V130.95H202.91V170.84H202.9ZM192.33 150.83C192.33 147.25 191.43 144.42 189.63 142.33C187.83 140.24 185.39 139.2 182.33 139.2C179.27 139.2 176.71 140.24 174.91 142.31C173.11 144.38 172.21 147.22 172.21 150.83C172.21 154.44 173.1 157.24 174.87 159.25C176.65 161.26 179.11 162.26 182.25 162.26C185.39 162.26 187.93 161.26 189.69 159.25C191.45 157.24 192.33 154.44 192.33 150.83Z" fill="#FAFAFA"/>
<path d="M209.89 163.84L218.8 159.24C219.1 160.79 219.9 162.01 221.2 162.9C222.5 163.79 224.11 164.24 226.04 164.24C227.97 164.24 229.43 163.89 230.51 163.2C231.59 162.51 232.14 161.55 232.14 160.33C232.14 158.41 230.21 156.79 226.37 155.49C225.18 155.08 224.23 154.74 223.52 154.47C218.83 152.71 215.58 150.93 213.78 149.14C211.98 147.35 211.07 145.14 211.07 142.51C211.07 138.61 212.6 135.45 215.67 133.03C218.73 130.62 222.77 129.41 227.79 129.41C231.37 129.41 234.47 130.13 237.08 131.57C239.69 133.01 241.6 135.04 242.79 137.67L234.29 141.9C233.83 140.41 233.03 139.28 231.89 138.5C230.75 137.73 229.33 137.34 227.62 137.34C225.91 137.34 224.53 137.69 223.47 138.4C222.41 139.11 221.88 140.03 221.88 141.17C221.88 143.15 224.51 144.99 229.77 146.7C230.39 146.89 230.87 147.04 231.19 147.15C235.55 148.59 238.66 150.26 240.5 152.17C242.34 154.08 243.27 156.51 243.27 159.47C243.27 163.43 241.74 166.57 238.67 168.9C235.61 171.23 231.47 172.4 226.27 172.4C222.15 172.4 218.63 171.63 215.72 170.1C212.81 168.57 210.86 166.47 209.89 163.82V163.84Z" fill="#FAFAFA"/>
</g>
<defs>
<clipPath id="clip0_33_2457">
<rect width="245.95" height="171.5" fill="white" transform="translate(0.179932 0.919983)"/>
</clipPath>
</defs>
</svg>
