<svg width="330" height="77" viewBox="0 0 330 77" fill="none" xmlns="http://www.w3.org/2000/svg">
<g clip-path="url(#clip0_33_2467)">
<path d="M0 43.72C4.61 39.11 10.85 36.59 17.39 36.59C21.7 36.59 25.12 37.18 28.84 39.41C23.64 34.95 16.35 33.76 9.67 33.76V20.53C20.67 20.53 29.73 27.22 33.15 37.62C32.85 31.38 27.8 24.54 23.49 20.23L33 10.86C36.87 14.73 39.24 19.33 39.99 24.53C40.74 29.73 39.84 34.79 37.46 39.54C41.62 34.63 42.96 26.61 42.96 20.37H56.19C56.19 31.37 49.35 40.43 38.95 43.85C45.04 43.55 52.32 38.5 56.48 34.34L65.85 43.71C61.24 48.31 55 50.84 48.46 50.84C45.19 50.84 39.99 49.8 37.16 48.01C42.07 52.17 50.09 53.66 56.18 53.66V67.04C45.33 67.04 36.12 60.06 32.85 49.8C33.15 55.74 38.35 63.32 42.36 67.33L32.99 76.7C29.13 72.68 26.9 68.08 26.16 62.87C25.42 57.67 26.16 52.61 28.53 47.86C24.37 52.77 22.88 60.94 22.88 67.03H9.65C9.65 56.18 16.64 46.82 26.89 43.55C20.5 44 13.66 48.75 9.36 53.06L0 43.72Z" fill="#FAFAFA"/>
<path d="M128.74 63.66H117.52L117.68 57.93C116.11 60.45 114.22 62.3 112.01 63.48C109.8 64.66 107.11 65.25 103.94 65.25C98.65 65.25 94.39 63.28 91.15 59.35C87.91 55.42 86.29 50.23 86.29 43.78C86.29 37.33 87.88 31.82 91.07 28.06C94.26 24.31 98.68 22.43 104.35 22.43C107.3 22.43 109.9 23.09 112.14 24.42C114.38 25.75 116.25 27.73 117.77 30.36V23.77H128.75V63.66H128.74ZM118.17 43.65C118.17 40.07 117.27 37.24 115.47 35.15C113.67 33.06 111.23 32.02 108.17 32.02C105.11 32.02 102.55 33.06 100.75 35.13C98.95 37.2 98.05 40.04 98.05 43.65C98.05 47.26 98.94 50.06 100.71 52.07C102.49 54.08 104.95 55.08 108.09 55.08C111.23 55.08 113.77 54.08 115.53 52.07C117.29 50.06 118.17 47.26 118.17 43.65Z" fill="#FAFAFA"/>
<path d="M149.48 63.66L133.25 23.77H146.63L153.38 44.51C153.92 46.19 154.36 47.75 154.68 49.19C155.01 50.63 155.24 52.04 155.37 53.42C155.7 51.33 156.02 49.56 156.35 48.09C156.68 46.63 157.05 45.3 157.49 44.1L164.28 23.77H177.46L161.07 63.66H149.48Z" fill="#FAFAFA"/>
<path d="M181.89 7.37997C181.89 5.53997 182.55 3.94997 183.88 2.61997C185.21 1.28997 186.79 0.629974 188.64 0.629974C190.49 0.629974 192.12 1.28997 193.46 2.59997C194.8 3.91997 195.47 5.50997 195.47 7.37997C195.47 9.24997 194.8 10.85 193.46 12.18C192.12 13.51 190.51 14.17 188.64 14.17C186.77 14.17 185.21 13.49 183.88 12.14C182.55 10.78 181.89 9.19997 181.89 7.37997ZM182.91 63.66V23.77H194.46V63.66H182.91Z" fill="#FAFAFA"/>
<path d="M216.05 63.66L199.82 23.77H213.2L219.95 44.51C220.49 46.19 220.93 47.75 221.25 49.19C221.58 50.63 221.81 52.04 221.94 53.42C222.27 51.33 222.59 49.56 222.92 48.09C223.25 46.63 223.62 45.3 224.06 44.1L230.85 23.77H244.03L227.64 63.66H216.05Z" fill="#FAFAFA"/>
<path d="M289.01 63.66H277.79L277.95 57.93C276.38 60.45 274.49 62.3 272.28 63.48C270.07 64.66 267.38 65.25 264.21 65.25C258.92 65.25 254.66 63.28 251.42 59.35C248.18 55.42 246.56 50.23 246.56 43.78C246.56 37.33 248.15 31.82 251.34 28.06C254.53 24.31 258.95 22.43 264.62 22.43C267.57 22.43 270.17 23.09 272.41 24.42C274.65 25.75 276.52 27.73 278.04 30.36V23.77H289.02V63.66H289.01ZM278.43 43.65C278.43 40.07 277.53 37.24 275.73 35.15C273.93 33.06 271.49 32.02 268.43 32.02C265.37 32.02 262.81 33.06 261.01 35.13C259.21 37.2 258.31 40.04 258.31 43.65C258.31 47.26 259.2 50.06 260.97 52.07C262.75 54.08 265.21 55.08 268.35 55.08C271.49 55.08 274.03 54.08 275.79 52.07C277.55 50.06 278.43 47.26 278.43 43.65Z" fill="#FAFAFA"/>
<path d="M296 56.67L304.91 52.07C305.21 53.62 306.01 54.84 307.31 55.73C308.61 56.62 310.22 57.07 312.15 57.07C314.08 57.07 315.54 56.72 316.62 56.03C317.7 55.34 318.25 54.38 318.25 53.16C318.25 51.24 316.32 49.62 312.48 48.32C311.29 47.91 310.34 47.57 309.63 47.3C304.94 45.54 301.69 43.76 299.89 41.97C298.09 40.18 297.19 37.97 297.19 35.34C297.19 31.44 298.72 28.28 301.79 25.86C304.85 23.45 308.89 22.24 313.91 22.24C317.49 22.24 320.59 22.96 323.2 24.4C325.82 25.84 327.72 27.87 328.91 30.5L320.41 34.73C319.95 33.24 319.15 32.11 318.01 31.33C316.87 30.56 315.45 30.17 313.74 30.17C312.03 30.17 310.65 30.52 309.59 31.23C308.53 31.94 308 32.86 308 34C308 35.98 310.63 37.82 315.89 39.53C316.51 39.72 316.99 39.87 317.31 39.98C321.67 41.42 324.78 43.09 326.62 45C328.46 46.91 329.39 49.34 329.39 52.3C329.39 56.26 327.86 59.4 324.79 61.73C321.73 64.06 317.59 65.23 312.39 65.23C308.27 65.23 304.75 64.46 301.84 62.93C298.93 61.4 296.98 59.3 296 56.65V56.67Z" fill="#FAFAFA"/>
</g>
<defs>
<clipPath id="clip0_33_2467">
<rect width="329.39" height="76.08" fill="white" transform="translate(0 0.629974)"/>
</clipPath>
</defs>
</svg>
